<svg width="48" height="48" viewBox="0 0 48 48" fill="none" xmlns="http://www.w3.org/2000/svg">
<mask id="mask0_69_149" style="mask-type:alpha" maskUnits="userSpaceOnUse" x="0" y="0" width="48" height="48">
<rect width="48" height="48" fill="#D9D9D9"/>
</mask>
<g mask="url(#mask0_69_149)">
<path d="M24 22C25.1 22 26.0417 21.6083 26.825 20.825C27.6083 20.0417 28 19.1 28 18C28 16.9 27.6083 15.9583 26.825 15.175C26.0417 14.3917 25.1 14 24 14C22.9 14 21.9583 14.3917 21.175 15.175C20.3917 15.9583 20 16.9 20 18C20 19.1 20.3917 20.0417 21.175 20.825C21.9583 21.6083 22.9 22 24 22ZM16.769 40V38H23V30.4925C21.2383 30.1768 19.6967 29.4402 18.375 28.2825C17.0533 27.1248 16.1437 25.6897 15.646 23.977C13.5307 23.7283 11.7275 22.861 10.2365 21.375C8.7455 19.889 8 18.0973 8 16V14C8 13.464 8.19933 12.9967 8.598 12.598C8.99667 12.1993 9.464 12 10 12H15.3075V8H32.6925V12H38C38.536 12 39.0033 12.1993 39.402 12.598C39.8007 12.9967 40 13.464 40 14V16C40 18.0973 39.2545 19.889 37.7635 21.375C36.2725 22.861 34.4693 23.7283 32.354 23.977C31.8563 25.6897 30.9467 27.1248 29.625 28.2825C28.3033 29.4402 26.7617 30.1768 25 30.4925V38H31.231V40H16.769ZM15.3075 21.831V14H10V16C10 17.523 10.5077 18.8313 11.523 19.925C12.5383 21.0187 13.7998 21.654 15.3075 21.831ZM24 28.5385C25.846 28.5385 27.4102 27.8975 28.6925 26.6155C29.9745 25.3335 30.6155 23.7693 30.6155 21.923V10H17.3845V21.923C17.3845 23.7693 18.0255 25.3335 19.3075 26.6155C20.5898 27.8975 22.154 28.5385 24 28.5385ZM32.6925 21.831C34.2002 21.654 35.4617 21.0187 36.477 19.925C37.4923 18.8313 38 17.523 38 16V14H32.6925V21.831Z" fill="#4188F8"/>
</g>
</svg>
