<svg width="48" height="48" viewBox="0 0 48 48" fill="none" xmlns="http://www.w3.org/2000/svg">
<mask id="mask0_69_158" style="mask-type:alpha" maskUnits="userSpaceOnUse" x="0" y="0" width="48" height="48">
<rect width="48" height="48" fill="#D9D9D9"/>
</mask>
<g mask="url(#mask0_69_158)">
<path d="M9.4501 39C7.68076 39 6.18393 38.3858 4.9596 37.1575C3.73526 35.9295 3.11543 34.4217 3.1001 32.634C3.1001 32.3703 3.11043 32.1142 3.1311 31.8655C3.15143 31.6168 3.19493 31.3553 3.2616 31.081L7.4616 14.281C7.87026 12.7097 8.70243 11.4367 9.9581 10.462C11.2134 9.48733 12.6441 9 14.2501 9H33.7501C35.3561 9 36.7868 9.48733 38.0421 10.462C39.2978 11.4367 40.1299 12.7097 40.5386 14.281L44.7386 31.081C44.8053 31.3553 44.8571 31.6252 44.8941 31.8905C44.9314 32.1558 44.9501 32.4203 44.9501 32.684C44.9501 34.4717 44.3276 35.9712 43.0826 37.1825C41.8379 38.3942 40.3279 39 38.5526 39C37.3303 39 36.2089 38.6782 35.1886 38.0345C34.1679 37.3908 33.3833 36.5255 32.8346 35.4385L31.3961 32.5C31.1528 32 30.7874 31.625 30.3001 31.375C29.8128 31.125 29.2961 31 28.7501 31H19.2501C18.7104 31 18.1954 31.1218 17.7051 31.3655C17.2144 31.6092 16.8474 31.9873 16.6041 32.5L15.1656 35.4385C14.6426 36.5512 13.8619 37.423 12.8236 38.054C11.7856 38.6847 10.6611 39 9.4501 39ZM9.6106 37C10.4163 37 11.1608 36.782 11.8441 36.346C12.5274 35.9103 13.0409 35.3322 13.3846 34.6115L14.7846 31.723C15.2056 30.8703 15.8231 30.2033 16.6371 29.722C17.4508 29.2407 18.3218 29 19.2501 29H28.7501C29.6938 29 30.5681 29.2552 31.3731 29.7655C32.1784 30.2758 32.8093 30.9412 33.2656 31.7615L34.6656 34.6115C35.0093 35.3322 35.5228 35.9103 36.2061 36.346C36.8894 36.782 37.6429 37 38.4666 37C39.6803 37 40.7208 36.5892 41.5881 35.7675C42.4551 34.9455 42.8924 33.9397 42.9001 32.75C42.9001 32.6807 42.8539 32.287 42.7616 31.569L38.5616 14.819C38.2769 13.714 37.6884 12.8013 36.7961 12.081C35.9038 11.3603 34.8884 11 33.7501 11H14.2501C13.0841 11 12.0536 11.3603 11.1586 12.081C10.2633 12.8013 9.68993 13.714 9.4386 14.819L5.2386 31.569C5.1976 31.718 5.15143 32.095 5.1001 32.7C5.1001 33.916 5.54426 34.9367 6.4326 35.762C7.32126 36.5873 8.3806 37 9.6106 37ZM27.0001 21.5385C27.4128 21.5385 27.7724 21.3853 28.0791 21.079C28.3854 20.7723 28.5386 20.4127 28.5386 20C28.5386 19.5873 28.3854 19.2277 28.0791 18.921C27.7724 18.6147 27.4128 18.4615 27.0001 18.4615C26.5874 18.4615 26.2278 18.6147 25.9211 18.921C25.6148 19.2277 25.4616 19.5873 25.4616 20C25.4616 20.4127 25.6148 20.7723 25.9211 21.079C26.2278 21.3853 26.5874 21.5385 27.0001 21.5385ZM31.0001 17.5385C31.4128 17.5385 31.7724 17.3853 32.0791 17.079C32.3854 16.7723 32.5386 16.4127 32.5386 16C32.5386 15.5873 32.3854 15.2277 32.0791 14.921C31.7724 14.6147 31.4128 14.4615 31.0001 14.4615C30.5874 14.4615 30.2278 14.6147 29.9211 14.921C29.6148 15.2277 29.4616 15.5873 29.4616 16C29.4616 16.4127 29.6148 16.7723 29.9211 17.079C30.2278 17.3853 30.5874 17.5385 31.0001 17.5385ZM31.0001 25.5385C31.4128 25.5385 31.7724 25.3853 32.0791 25.079C32.3854 24.7723 32.5386 24.4127 32.5386 24C32.5386 23.5873 32.3854 23.2277 32.0791 22.921C31.7724 22.6147 31.4128 22.4615 31.0001 22.4615C30.5874 22.4615 30.2278 22.6147 29.9211 22.921C29.6148 23.2277 29.4616 23.5873 29.4616 24C29.4616 24.4127 29.6148 24.7723 29.9211 25.079C30.2278 25.3853 30.5874 25.5385 31.0001 25.5385ZM35.0001 21.5385C35.4128 21.5385 35.7724 21.3853 36.0791 21.079C36.3854 20.7723 36.5386 20.4127 36.5386 20C36.5386 19.5873 36.3854 19.2277 36.0791 18.921C35.7724 18.6147 35.4128 18.4615 35.0001 18.4615C34.5874 18.4615 34.2278 18.6147 33.9211 18.921C33.6148 19.2277 33.4616 19.5873 33.4616 20C33.4616 20.4127 33.6148 20.7723 33.9211 21.079C34.2278 21.3853 34.5874 21.5385 35.0001 21.5385ZM16.9981 24.3845C17.2534 24.3845 17.4649 24.301 17.6326 24.134C17.8006 23.967 17.8846 23.7557 17.8846 23.5V20.8845H20.5001C20.7558 20.8845 20.9671 20.8012 21.1341 20.6345C21.3011 20.4678 21.3846 20.257 21.3846 20.002C21.3846 19.7467 21.3011 19.5352 21.1341 19.3675C20.9671 19.1995 20.7558 19.1155 20.5001 19.1155H17.8846V16.5C17.8846 16.2443 17.8013 16.033 17.6346 15.866C17.4679 15.699 17.2571 15.6155 17.0021 15.6155C16.7468 15.6155 16.5353 15.699 16.3676 15.866C16.1996 16.033 16.1156 16.2443 16.1156 16.5V19.1155H13.5001C13.2444 19.1155 13.0331 19.1988 12.8661 19.3655C12.6991 19.5322 12.6156 19.743 12.6156 19.998C12.6156 20.2533 12.6991 20.4648 12.8661 20.6325C13.0331 20.8005 13.2444 20.8845 13.5001 20.8845H16.1156V23.5C16.1156 23.7557 16.1989 23.967 16.3656 24.134C16.5323 24.301 16.7431 24.3845 16.9981 24.3845Z" fill="#4188F8"/>
</g>
</svg>
