<svg width="48" height="48" viewBox="0 0 48 48" fill="none" xmlns="http://www.w3.org/2000/svg">
<g clip-path="url(#clip0_69_21)">
<mask id="mask0_69_21" style="mask-type:luminance" maskUnits="userSpaceOnUse" x="0" y="0" width="48" height="49">
<path d="M47.5837 0.78125H0.359375V48.0055H47.5837V0.78125Z" fill="white"/>
</mask>
<g mask="url(#mask0_69_21)">
<path d="M18.0685 38.1671C9.60751 40.9219 9.6075 33.2479 6.26245 32.2641M29.8746 42.1026V35.2157C29.8746 33.2479 30.0713 32.4609 28.8907 31.2802C34.4002 30.6899 39.7129 28.5255 39.7129 19.4742C39.7106 17.1228 38.7931 14.8646 37.155 13.1776C37.9233 11.1351 37.8526 8.87162 36.9582 6.88106C36.9582 6.88106 34.7938 6.29077 30.0713 9.43905C26.0716 8.39734 21.8716 8.39734 17.8717 9.43905C13.1493 6.29077 10.9849 6.88106 10.9849 6.88106C10.0905 8.87162 10.0198 11.1351 10.7881 13.1776C9.14993 14.8646 8.23253 17.1228 8.23013 19.4742C8.23013 28.5255 13.5429 30.6899 19.0524 31.2802C17.8717 32.4609 17.8717 33.6415 18.0685 35.2157V42.1026" stroke="#4188F8" stroke-width="2.20339" stroke-linecap="round" stroke-linejoin="round"/>
</g>
</g>
<defs>
<clipPath id="clip0_69_21">
<rect width="48" height="48" fill="white"/>
</clipPath>
</defs>
</svg>
