<svg width="48" height="48" viewBox="0 0 48 48" fill="none" xmlns="http://www.w3.org/2000/svg">
<mask id="mask0_69_47" style="mask-type:luminance" maskUnits="userSpaceOnUse" x="0" y="0" width="48" height="47">
<path d="M47.5458 0.776611H0.321533V46.9276H47.5458V0.776611Z" fill="white"/>
</mask>
<g mask="url(#mask0_69_47)">
<path d="M8.19214 25.7752C11.7006 26.1826 14.967 27.7318 17.4653 30.1734C19.9637 32.6149 21.5489 35.8071 21.9659 39.2358C23.7051 38.2559 25.1599 36.8587 26.193 35.1763C27.2258 33.494 27.8026 31.582 27.8689 29.6211C31.1729 28.4852 34.058 26.4174 36.1594 23.6791C38.2609 20.9409 39.4843 17.6551 39.675 14.2374C39.675 12.7074 39.053 11.24 37.946 10.1582C36.839 9.07629 35.3375 8.46851 33.7719 8.46851C30.2747 8.65485 26.9126 9.85047 24.1106 11.9041C21.3087 13.9579 19.1928 16.7774 18.0305 20.0062C16.024 20.071 14.0676 20.6347 12.3461 21.6442C10.6245 22.6536 9.19485 24.0754 8.19214 25.7752Z" stroke="#4188F8" stroke-width="2.20339" stroke-linecap="round" stroke-linejoin="round"/>
<path d="M14.0952 27.6981C12.0473 28.828 10.3914 30.5298 9.33968 32.5855C8.28795 34.6411 7.88839 36.9569 8.19221 39.2359C10.5242 39.5327 12.8939 39.1423 14.9973 38.1144C17.1007 37.0867 18.8421 35.4683 19.9983 33.467" stroke="#4188F8" stroke-width="2.20339" stroke-linecap="round" stroke-linejoin="round"/>
<path d="M27.8689 18.0832C27.8689 18.5932 28.0763 19.0824 28.4452 19.4429C28.8143 19.8036 29.3148 20.0062 29.8367 20.0062C30.3585 20.0062 30.859 19.8036 31.228 19.4429C31.597 19.0824 31.8043 18.5932 31.8043 18.0832C31.8043 17.5732 31.597 17.0842 31.228 16.7235C30.859 16.3629 30.3585 16.1603 29.8367 16.1603C29.3148 16.1603 28.8143 16.3629 28.4452 16.7235C28.0763 17.0842 27.8689 17.5732 27.8689 18.0832Z" stroke="#4188F8" stroke-width="2.20339" stroke-linecap="round" stroke-linejoin="round"/>
</g>
</svg>
