<svg width="49" height="48" viewBox="0 0 49 48" fill="none" xmlns="http://www.w3.org/2000/svg">
<mask id="mask0_69_150" style="mask-type:alpha" maskUnits="userSpaceOnUse" x="0" y="0" width="49" height="48">
<rect x="0.232422" width="48" height="48" fill="#D9D9D9"/>
</mask>
<g mask="url(#mask0_69_150)">
<path d="M23.6364 39.8844C23.8978 39.8844 24.1656 39.8254 24.4399 39.7074C24.7143 39.5898 24.9361 39.4463 25.1054 39.2769L40.6979 23.6844C41.2003 23.1821 41.5881 22.6681 41.8614 22.1424C42.1344 21.6168 42.2709 21.0398 42.2709 20.4114C42.2709 19.7754 42.1344 19.1581 41.8614 18.5594C41.5881 17.9608 41.2003 17.4139 40.6979 16.9189L33.1979 9.41893C32.7029 8.91659 32.1946 8.54809 31.6729 8.31343C31.1509 8.07876 30.5721 7.96143 29.9364 7.96143C29.3081 7.96143 28.7248 8.07876 28.1864 8.31343C27.6478 8.54809 27.1401 8.91659 26.6634 9.41893L24.9209 11.1614L28.6209 14.8729C29.0183 15.2626 29.3144 15.7063 29.5094 16.2039C29.7041 16.7013 29.8014 17.2063 29.8014 17.7189C29.8014 18.7603 29.4611 19.6213 28.7804 20.3019C28.0998 20.9826 27.2389 21.3229 26.1979 21.3229C25.6849 21.3229 25.1843 21.2448 24.6959 21.0884C24.2076 20.9321 23.7684 20.6589 23.3784 20.2689L19.5514 16.4539L10.9169 25.0884C10.7146 25.2911 10.5628 25.5213 10.4614 25.7789C10.3601 26.0366 10.3094 26.2961 10.3094 26.5574C10.3094 27.0294 10.4608 27.4186 10.7634 27.7249C11.0658 28.0313 11.4529 28.1844 11.9249 28.1844C12.1863 28.1844 12.4541 28.1254 12.7284 28.0074C13.0028 27.8898 13.2246 27.7463 13.3939 27.5769L19.7324 21.2384L21.1479 22.6539L14.8209 28.9924C14.6183 29.1948 14.4663 29.4248 14.3649 29.6824C14.2639 29.9401 14.2134 30.1998 14.2134 30.4614C14.2134 30.9078 14.3711 31.2886 14.6864 31.6039C15.0018 31.9193 15.3824 32.0769 15.8284 32.0769C16.0901 32.0769 16.3581 32.0179 16.6324 31.8999C16.9068 31.7819 17.1286 31.6383 17.2979 31.4689L24.0979 24.6809L25.5134 26.0959L18.7249 32.8959C18.5479 33.0653 18.4024 33.2871 18.2884 33.5614C18.1741 33.8358 18.1169 34.1038 18.1169 34.3654C18.1169 34.8114 18.2746 35.1921 18.5899 35.5074C18.9056 35.8231 19.2864 35.9809 19.7324 35.9809C19.9941 35.9809 20.2538 35.9303 20.5114 35.8289C20.7691 35.7276 20.9991 35.5756 21.2014 35.3729L28.0014 28.5844L29.4169 29.9999L22.6169 36.7999C22.4146 37.0026 22.2628 37.2456 22.1614 37.5289C22.0601 37.8123 22.0094 38.0718 22.0094 38.3074C22.0094 38.7794 22.1754 39.1603 22.5074 39.4499C22.8394 39.7396 23.2158 39.8844 23.6364 39.8844ZM23.6249 41.8844C22.5966 41.8844 21.7164 41.5083 20.9844 40.7559C20.2524 40.0033 19.9313 39.0743 20.0209 37.9689C18.8876 37.9819 17.9439 37.6436 17.1899 36.9539C16.4363 36.2639 16.0786 35.3011 16.1169 34.0654C14.8813 34.0781 13.9076 33.7249 13.1959 33.0059C12.4843 32.2866 12.1606 31.3384 12.2249 30.1614C11.1119 30.1744 10.1811 29.8616 9.43243 29.2229C8.68377 28.5846 8.30943 27.6961 8.30943 26.5574C8.30943 26.0448 8.40877 25.5314 8.60743 25.0174C8.8061 24.5031 9.10027 24.0511 9.48993 23.6614L19.5514 13.6114L24.7169 18.7769C24.8863 18.9539 25.0953 19.0994 25.3439 19.2134C25.5926 19.3274 25.8734 19.3844 26.1864 19.3844C26.6144 19.3844 26.9926 19.2351 27.3209 18.9364C27.6493 18.6378 27.8134 18.2486 27.8134 17.7689C27.8134 17.4563 27.7563 17.1756 27.6419 16.9269C27.5279 16.6783 27.3824 16.4693 27.2054 16.2999L20.3249 9.41893C19.8299 8.91659 19.3151 8.54809 18.7804 8.31343C18.2458 8.07876 17.6606 7.96143 17.0249 7.96143C16.3966 7.96143 15.8261 8.07876 15.3134 8.31343C14.8004 8.54809 14.2926 8.91659 13.7899 9.41893L7.70143 15.5189C7.27343 15.9473 6.92743 16.4576 6.66343 17.0499C6.3991 17.6423 6.25927 18.2538 6.24393 18.8844C6.2286 19.3358 6.2671 19.7698 6.35943 20.1864C6.45177 20.6031 6.59793 20.9948 6.79793 21.3614L5.28243 22.8769C4.94643 22.3409 4.6836 21.7236 4.49393 21.0249C4.30427 20.3263 4.2171 19.6128 4.23243 18.8844C4.24777 17.9768 4.42977 17.1069 4.77843 16.2749C5.1271 15.4429 5.62593 14.7026 6.27493 14.0539L12.3249 8.00393C13.0223 7.31393 13.7601 6.80109 14.5384 6.46543C15.3164 6.12943 16.1581 5.96143 17.0634 5.96143C17.9684 5.96143 18.8036 6.12943 19.5689 6.46543C20.3343 6.80109 21.0618 7.31393 21.7514 8.00393L23.4939 9.74593L25.2364 8.00393C25.9338 7.31393 26.6651 6.80109 27.4304 6.46543C28.1958 6.12943 29.0311 5.96143 29.9364 5.96143C30.8414 5.96143 31.6831 6.12943 32.4614 6.46543C33.2394 6.80109 33.9734 7.31393 34.6634 8.00393L42.1134 15.4539C42.8031 16.1436 43.3351 16.9179 43.7094 17.7769C44.0838 18.6359 44.2709 19.5179 44.2709 20.4229C44.2709 21.3283 44.0838 22.1636 43.7094 22.9289C43.3351 23.6943 42.8031 24.4218 42.1134 25.1114L26.5209 40.6924C26.1056 41.1078 25.6536 41.4103 25.1649 41.5999C24.6766 41.7896 24.1633 41.8844 23.6249 41.8844Z" fill="#4188F8"/>
</g>
</svg>
