<svg width="48" height="48" viewBox="0 0 48 48" fill="none" xmlns="http://www.w3.org/2000/svg">
<path d="M29.6521 10.752C35.2521 6.76196 39.8261 4.98796 41.4181 6.58196C43.0121 8.17396 41.2381 12.748 37.2481 18.35M10.7521 29.65C6.76208 35.25 4.98808 39.826 6.58208 41.418C8.17408 43.012 12.7481 41.238 18.3501 37.248M18.3501 37.248C21.5281 34.984 25.0381 32.006 28.5221 28.522C32.0061 25.038 34.9841 21.528 37.2501 18.348C38.0107 20.1351 38.4018 22.0577 38.4001 24C38.4005 26.3811 37.8105 28.7251 36.6829 30.8223C35.5552 32.9195 33.9251 34.7043 31.9385 36.0169C29.9519 37.3296 27.6707 38.1291 25.2993 38.3439C22.9279 38.5588 20.5403 38.1822 18.3501 37.248ZM34.1801 13.82C32.8539 12.4357 31.2647 11.3302 29.5056 10.5682C27.7466 9.80622 25.8531 9.40315 23.9362 9.38261C22.0193 9.36207 20.1176 9.72448 18.3426 10.4486C16.5676 11.1727 14.9551 12.2439 13.5996 13.5994C12.244 14.955 11.1728 16.5675 10.4487 18.3425C9.7246 20.1175 9.36219 22.0192 9.38273 23.9361C9.40327 25.853 9.80634 27.7465 10.5683 29.5055C11.3303 31.2646 12.4358 32.8538 13.8201 34.18" stroke="#4188F8" stroke-width="2.2" stroke-linecap="round" stroke-linejoin="round"/>
</svg>
