<svg width="48" height="48" viewBox="0 0 48 48" fill="none" xmlns="http://www.w3.org/2000/svg">
<mask id="mask0_69_85" style="mask-type:luminance" maskUnits="userSpaceOnUse" x="0" y="0" width="48" height="48">
<path d="M47.5486 0.724365H0.318848V47.9541H47.5486V0.724365Z" fill="white"/>
</mask>
<g mask="url(#mask0_69_85)">
<path d="M21.9656 12.5318C21.9656 14.0975 23.0023 15.5992 24.8476 16.7064C26.6928 17.8135 29.1955 18.4355 31.8051 18.4355C34.4148 18.4355 36.9175 17.8135 38.7628 16.7064C40.608 15.5992 41.6447 14.0975 41.6447 12.5318C41.6447 10.966 40.608 9.46437 38.7628 8.35721C36.9175 7.25005 34.4148 6.62805 31.8051 6.62805C29.1955 6.62805 26.6928 7.25005 24.8476 8.35721C23.0023 9.46437 21.9656 10.966 21.9656 12.5318Z" stroke="#4188F8" stroke-width="2.2" stroke-linecap="round" stroke-linejoin="round"/>
<path d="M21.9656 12.5319V20.4035C21.9656 23.6644 26.3718 26.3073 31.8051 26.3073C37.2385 26.3073 41.6447 23.6644 41.6447 20.4035V12.5319" stroke="#4188F8" stroke-width="2.2" stroke-linecap="round" stroke-linejoin="round"/>
<path d="M21.9656 20.4034V28.275C21.9656 31.5359 26.3718 34.1788 31.8051 34.1788C37.2385 34.1788 41.6447 31.5359 41.6447 28.275V20.4034" stroke="#4188F8" stroke-width="2.2" stroke-linecap="round" stroke-linejoin="round"/>
<path d="M21.9656 28.275V36.1467C21.9656 39.4075 26.3718 42.0504 31.8051 42.0504C37.2385 42.0504 41.6447 39.4075 41.6447 36.1467V28.275" stroke="#4188F8" stroke-width="2.2" stroke-linecap="round" stroke-linejoin="round"/>
<path d="M14.094 18.4354H9.17428C8.39139 18.4354 7.64058 18.7464 7.08699 19.3001C6.53341 19.8537 6.22241 20.6045 6.22241 21.3873C6.22241 22.1702 6.53341 22.9211 7.08699 23.4746C7.64058 24.0282 8.39139 24.3392 9.17428 24.3392H11.1422C11.9251 24.3392 12.6759 24.6502 13.2295 25.2038C13.783 25.7573 14.094 26.5081 14.094 27.2911C14.094 28.0739 13.783 28.8247 13.2295 29.3783C12.6759 29.9319 11.9251 30.2429 11.1422 30.2429H6.22241" stroke="#4188F8" stroke-width="2.2" stroke-linecap="round" stroke-linejoin="round"/>
<path d="M10.1582 30.243V32.211M10.1582 16.4677V18.4355" stroke="#4188F8" stroke-width="2.2" stroke-linecap="round" stroke-linejoin="round"/>
</g>
</svg>
