<svg width="48" height="48" viewBox="0 0 48 48" fill="none" xmlns="http://www.w3.org/2000/svg">
<mask id="mask0_69_55" style="mask-type:luminance" maskUnits="userSpaceOnUse" x="0" y="0" width="48" height="48">
<path d="M47.5837 0.743286H0.359375V47.9676H47.5837V0.743286Z" fill="white"/>
</mask>
<g mask="url(#mask0_69_55)">
<path d="M8.23022 32.2263L20.0363 18.4525L29.8747 28.291L39.7131 16.4849" stroke="#4188F8" stroke-width="2.20339" stroke-linecap="round" stroke-linejoin="round"/>
<path d="M27.9067 28.2909C27.9067 28.8128 28.114 29.3132 28.4831 29.6822C28.8521 30.0513 29.3525 30.2586 29.8744 30.2586C30.3963 30.2586 30.8968 30.0513 31.2657 29.6822C31.6348 29.3132 31.8421 28.8128 31.8421 28.2909C31.8421 27.769 31.6348 27.2685 31.2657 26.8996C30.8968 26.5305 30.3963 26.3232 29.8744 26.3232C29.3525 26.3232 28.8521 26.5305 28.4831 26.8996C28.114 27.2685 27.9067 27.769 27.9067 28.2909Z" stroke="#4188F8" stroke-width="2.20339" stroke-linecap="round" stroke-linejoin="round"/>
<path d="M18.0684 18.4525C18.0684 18.9744 18.2757 19.4749 18.6447 19.8439C19.0137 20.2129 19.5142 20.4202 20.036 20.4202C20.5579 20.4202 21.0584 20.2129 21.4274 19.8439C21.7964 19.4749 22.0037 18.9744 22.0037 18.4525C22.0037 17.9307 21.7964 17.4302 21.4274 17.0612C21.0584 16.6922 20.5579 16.4849 20.036 16.4849C19.5142 16.4849 19.0137 16.6922 18.6447 17.0612C18.2757 17.4302 18.0684 17.9307 18.0684 18.4525Z" stroke="#4188F8" stroke-width="2.20339" stroke-linecap="round" stroke-linejoin="round"/>
<path d="M6.26245 32.2262C6.26245 32.7481 6.46976 33.2485 6.83878 33.6175C7.20778 33.9866 7.70827 34.1939 8.23013 34.1939C8.75199 34.1939 9.25247 33.9866 9.62149 33.6175C9.9905 33.2485 10.1978 32.7481 10.1978 32.2262C10.1978 31.7044 9.9905 31.2038 9.62149 30.8349C9.25247 30.4658 8.75199 30.2585 8.23013 30.2585C7.70827 30.2585 7.20778 30.4658 6.83878 30.8349C6.46976 31.2038 6.26245 31.7044 6.26245 32.2262Z" stroke="#4188F8" stroke-width="2.20339" stroke-linecap="round" stroke-linejoin="round"/>
<path d="M37.7454 16.4848C37.7454 17.0066 37.9527 17.507 38.3217 17.8761C38.6907 18.2451 39.1912 18.4524 39.713 18.4524C40.2349 18.4524 40.7354 18.2451 41.1044 17.8761C41.4734 17.507 41.6807 17.0066 41.6807 16.4848C41.6807 15.9629 41.4734 15.4624 41.1044 15.0934C40.7354 14.7244 40.2349 14.5171 39.713 14.5171C39.1912 14.5171 38.6907 14.7244 38.3217 15.0934C37.9527 15.4624 37.7454 15.9629 37.7454 16.4848Z" stroke="#4188F8" stroke-width="2.20339" stroke-linecap="round" stroke-linejoin="round"/>
</g>
</svg>
