<svg xmlns="http://www.w3.org/2000/svg" width="221" height="27" viewBox="0 0 221 27" fill="black">
<path fill-rule="evenodd" clip-rule="evenodd" d="M13.1586 1.80566L0 24.5976L4.6925 21.8588L5.0931 18.7872L7.8971 13.9305L10.7011 9.07368L13.1586 7.1926V1.80566ZM26.6545 25.1944L0.350945 25.1944L5.04098 22.4569L7.8971 23.644H13.5051L19.1131 23.644L21.9664 22.4581L26.6545 25.1944ZM27 24.5944L13.8509 1.81893V7.19208L16.3091 9.07368L19.1131 13.9305L21.9171 18.7872L22.3181 21.8617L27 24.5944Z" fill="#23FA4B"/>
<ellipse cx="13.5104" cy="16.108" rx="3.11522" ry="3.11529" fill="#23FA4B"/>
<path d="M32.3695 20.5V7.54H35.2495L42.5035 16.18V7.54H45.3295V20.5H42.4495L35.1595 11.824V20.5H32.3695ZM47.742 20.5V7.54H59.712V10.348H50.568V12.616H57.93V15.424H50.568V17.692H59.712V20.5H47.742ZM66.1853 20.5L61.4693 7.54H64.4393L67.2653 15.262L70.0913 7.54H72.6653L75.5093 15.262L78.3353 7.54H81.2873L76.5713 20.5H74.4293L71.3693 12.166L68.3273 20.5H66.1853ZM93.9229 20.5L89.2069 7.54H92.1769L95.0029 15.262L97.8289 7.54H100.403L103.247 15.262L106.073 7.54H109.025L104.309 20.5H102.167L99.1069 12.166L96.0649 20.5H93.9229ZM111.198 20.5V7.54H123.168V10.348H114.024V12.616H121.386V15.424H114.024V17.692H123.168V20.5H111.198ZM125.357 20.5V7.54H135.149C135.629 7.54 136.067 7.66 136.463 7.9C136.871 8.14 137.195 8.464 137.435 8.872C137.687 9.268 137.813 9.712 137.813 10.204V12.634C137.813 12.79 137.801 12.94 137.777 13.084C137.765 13.216 137.735 13.342 137.687 13.462C137.867 13.69 138.017 13.954 138.137 14.254C138.257 14.554 138.317 14.854 138.317 15.154V17.836C138.317 18.316 138.191 18.76 137.939 19.168C137.699 19.576 137.375 19.9 136.967 20.14C136.571 20.38 136.127 20.5 135.635 20.5H125.357ZM128.147 17.692H135.491V15.316H128.147V17.692ZM128.147 12.508H134.987V10.348H128.147V12.508ZM149.428 20.5C148.948 20.5 148.504 20.38 148.096 20.14C147.688 19.9 147.364 19.576 147.124 19.168C146.884 18.76 146.764 18.316 146.764 17.836V10.204C146.764 9.712 146.884 9.268 147.124 8.872C147.364 8.464 147.688 8.14 148.096 7.9C148.504 7.66 148.948 7.54 149.428 7.54H157.06C157.54 7.54 157.978 7.66 158.374 7.9C158.782 8.14 159.106 8.464 159.346 8.872C159.598 9.268 159.724 9.712 159.724 10.204V17.836C159.724 18.316 159.598 18.76 159.346 19.168C159.106 19.576 158.782 19.9 158.374 20.14C157.978 20.38 157.54 20.5 157.06 20.5H149.428ZM149.554 17.692H156.898V10.348H149.554V17.692ZM172.129 20.5L168.367 16.018H172.021L175.009 19.546V20.5H172.129ZM162.067 20.5V7.558H172.345C172.837 7.558 173.281 7.678 173.677 7.918C174.085 8.158 174.409 8.482 174.649 8.89C174.901 9.298 175.027 9.742 175.027 10.222V13.57C175.027 14.05 174.901 14.494 174.649 14.902C174.409 15.31 174.085 15.634 173.677 15.874C173.281 16.114 172.837 16.234 172.345 16.234L164.857 16.252V20.5H162.067ZM164.857 13.426H172.201V10.348H164.857V13.426ZM177.316 20.5V7.54H187.594C188.086 7.54 188.53 7.66 188.926 7.9C189.334 8.14 189.658 8.464 189.898 8.872C190.15 9.268 190.276 9.712 190.276 10.204V17.836C190.276 18.316 190.15 18.76 189.898 19.168C189.658 19.576 189.334 19.9 188.926 20.14C188.53 20.38 188.086 20.5 187.594 20.5H177.316ZM180.088 17.692H187.45V10.348H180.088V17.692ZM192.688 20.5V7.54H204.658V10.348H195.514V12.616H202.876V15.424H195.514V17.692H204.658V20.5H192.688ZM216.855 20.5L213.093 16.018H216.747L219.735 19.546V20.5H216.855ZM206.793 20.5V7.558H217.071C217.563 7.558 218.007 7.678 218.403 7.918C218.811 8.158 219.135 8.482 219.375 8.89C219.627 9.298 219.753 9.742 219.753 10.222V13.57C219.753 14.05 219.627 14.494 219.375 14.902C219.135 15.31 218.811 15.634 218.403 15.874C218.007 16.114 217.563 16.234 217.071 16.234L209.583 16.252V20.5H206.793ZM209.583 13.426H216.927V10.348H209.583V13.426Z" fill="black"/>
</svg>