<svg width="43" height="43" viewBox="0 0 43 43" fill="none" xmlns="http://www.w3.org/2000/svg">
    <g clip-path="url(#clip0_40_2386)">
    <path d="M5.57617 11.276C5.57617 10.341 5.9476 9.44427 6.60874 8.78312C7.26989 8.12198 8.1666 7.75055 9.1016 7.75055H33.7796C34.7146 7.75055 35.6113 8.12198 36.2724 8.78312C36.9336 9.44427 37.305 10.341 37.305 11.276V32.4285C37.305 33.3635 36.9336 34.2602 36.2724 34.9214C35.6113 35.5825 34.7146 35.9539 33.7796 35.9539H9.1016C8.1666 35.9539 7.26989 35.5825 6.60874 34.9214C5.9476 34.2602 5.57617 33.3635 5.57617 32.4285V11.276Z" stroke="#4188F8" stroke-width="2.20339" stroke-linecap="round" stroke-linejoin="round"/>
    <path d="M12.627 14.8014H30.2541" stroke="#4188F8" stroke-width="2.20339" stroke-linecap="round" stroke-linejoin="round"/>
    <path d="M12.627 21.8523H30.2541" stroke="#4188F8" stroke-width="2.20339" stroke-linecap="round" stroke-linejoin="round"/>
    <path d="M12.627 28.9031H30.2541" stroke="#4188F8" stroke-width="2.20339" stroke-linecap="round" stroke-linejoin="round"/>
    </g>
    <defs>
    <clipPath id="clip0_40_2386">
    <rect width="42.3051" height="42.3051" fill="white" transform="translate(0.288086 0.699768)"/>
    </clipPath>
    </defs>
    </svg>
    