<svg width="43" height="43" viewBox="0 0 43 43" fill="none" xmlns="http://www.w3.org/2000/svg">
    <g clip-path="url(#clip0_40_2436)">
    <path d="M37.3391 21.8354C37.3391 18.6977 36.4086 15.6305 34.6654 13.0216C32.9222 10.4127 30.4445 8.37936 27.5457 7.17862C24.6468 5.97788 21.457 5.66371 18.3797 6.27585C15.3023 6.88798 12.4755 8.39892 10.2568 10.6176C8.03814 12.8363 6.5272 15.663 5.91507 18.7404C5.30294 21.8178 5.6171 25.0076 6.81784 27.9065C8.01858 30.8053 10.052 33.283 12.6609 35.0262C15.2697 36.7694 18.337 37.6998 21.4746 37.6998" stroke="#4188F8" stroke-width="2.20339" stroke-linecap="round" stroke-linejoin="round"/>
    <path d="M6.66772 16.5473H36.2813" stroke="#4188F8" stroke-width="2.20339" stroke-linecap="round" stroke-linejoin="round"/>
    <path d="M6.66772 27.1235H20.5931" stroke="#4188F8" stroke-width="2.20339" stroke-linecap="round" stroke-linejoin="round"/>
    <path d="M20.5932 5.97101C17.6237 10.7296 16.0493 16.2262 16.0493 21.8354C16.0493 27.4446 17.6237 32.9412 20.5932 37.6998" stroke="#4188F8" stroke-width="2.20339" stroke-linecap="round" stroke-linejoin="round"/>
    <path d="M22.356 5.97101C25.2066 10.536 26.774 15.785 26.8932 21.1656" stroke="#4188F8" stroke-width="2.20339" stroke-linecap="round" stroke-linejoin="round"/>
    <path d="M26.7627 32.4117C26.7627 33.8142 27.3198 35.1592 28.3116 36.1509C29.3033 37.1427 30.6483 37.6998 32.0508 37.6998C33.4533 37.6998 34.7984 37.1427 35.7901 36.1509C36.7818 35.1592 37.339 33.8142 37.339 32.4117C37.339 31.0092 36.7818 29.6641 35.7901 28.6724C34.7984 27.6807 33.4533 27.1235 32.0508 27.1235C30.6483 27.1235 29.3033 27.6807 28.3116 28.6724C27.3198 29.6641 26.7627 31.0092 26.7627 32.4117Z" stroke="#4188F8" stroke-width="2.20339" stroke-linecap="round" stroke-linejoin="round"/>
    <path d="M35.9288 36.2897L39.1017 39.4626" stroke="#4188F8" stroke-width="2.20339" stroke-linecap="round" stroke-linejoin="round"/>
    </g>
    <defs>
    <clipPath id="clip0_40_2436">
    <rect width="42.3051" height="42.3051" fill="white" transform="translate(0.322021 0.682861)"/>
    </clipPath>
    </defs>
    </svg>
    