<svg width="43" height="43" viewBox="0 0 43 43" fill="none" xmlns="http://www.w3.org/2000/svg">
    <g clip-path="url(#clip0_40_2403)">
    <path d="M16.1865 34.1913C8.60684 36.6591 8.60684 29.7845 5.61023 28.9032M26.7628 37.7168V31.5473C26.7628 29.7845 26.939 29.0795 25.8814 28.0218C30.817 27.493 35.5763 25.554 35.5763 17.4456C35.5742 15.3391 34.7523 13.3161 33.2848 11.8049C33.9731 9.97514 33.9097 7.94742 33.1085 6.16421C33.1085 6.16421 31.1696 5.6354 26.939 8.45574C23.3559 7.52254 19.5934 7.52254 16.0102 8.45574C11.7797 5.6354 9.84074 6.16421 9.84074 6.16421C9.03955 7.94742 8.97619 9.97514 9.66447 11.8049C8.19693 13.3161 7.37509 15.3391 7.37294 17.4456C7.37294 25.554 12.1323 27.493 17.0679 28.0218C16.0102 29.0795 16.0102 30.1371 16.1865 31.5473V37.7168" stroke="#4188F8" stroke-width="2.20339" stroke-linecap="round" stroke-linejoin="round"/>
    </g>
    <defs>
    <clipPath id="clip0_40_2403">
    <rect width="42.3051" height="42.3051" fill="white" transform="translate(0.322021 0.699829)"/>
    </clipPath>
    </defs>
    </svg>
    