<svg width="43" height="44" viewBox="0 0 43 44" fill="none" xmlns="http://www.w3.org/2000/svg">
    <g clip-path="url(#clip0_40_2354)">
    <path d="M7.33887 23.6272C10.4819 24.0007 13.408 25.4208 15.6461 27.6589C17.8842 29.897 19.3043 32.8231 19.6779 35.9661C21.2359 35.0679 22.5392 33.7871 23.4646 32.2449C24.3899 30.7028 24.9066 28.9501 24.966 27.1526C27.9258 26.1114 30.5104 24.2159 32.3929 21.7058C34.2755 19.1958 35.3714 16.1838 35.5423 13.0509C35.5423 11.6484 34.9851 10.3033 33.9934 9.31162C33.0017 8.3199 31.6566 7.76276 30.2541 7.76276C27.1212 7.93358 24.1093 9.02956 21.5992 10.9121C19.0891 12.7947 17.1936 15.3792 16.1524 18.339C14.3549 18.3984 12.6023 18.9151 11.0601 19.8405C9.51788 20.7658 8.23713 22.0691 7.33887 23.6272Z" stroke="#4188F8" stroke-width="2.20339" stroke-linecap="round" stroke-linejoin="round"/>
    <path d="M12.627 25.3899C10.7924 26.4256 9.30899 27.9856 8.36682 29.87C7.42465 31.7543 7.06671 33.8771 7.33888 35.9662C9.42798 36.2383 11.5508 35.8804 13.4351 34.9382C15.3194 33.9961 16.8794 32.5126 17.9152 30.678" stroke="#4188F8" stroke-width="2.20339" stroke-linecap="round" stroke-linejoin="round"/>
    <path d="M24.9659 16.5763C24.9659 17.0438 25.1517 17.4922 25.4822 17.8227C25.8128 18.1533 26.2612 18.339 26.7287 18.339C27.1962 18.339 27.6445 18.1533 27.9751 17.8227C28.3057 17.4922 28.4914 17.0438 28.4914 16.5763C28.4914 16.1088 28.3057 15.6605 27.9751 15.3299C27.6445 14.9993 27.1962 14.8136 26.7287 14.8136C26.2612 14.8136 25.8128 14.9993 25.4822 15.3299C25.1517 15.6605 24.9659 16.1088 24.9659 16.5763Z" stroke="#4188F8" stroke-width="2.20339" stroke-linecap="round" stroke-linejoin="round"/>
    </g>
    <defs>
    <clipPath id="clip0_40_2354">
    <rect width="42.3051" height="42.3051" fill="white" transform="translate(0.288086 0.711884)"/>
    </clipPath>
    </defs>
    </svg>
    