<svg width="43" height="43" viewBox="0 0 43 43" fill="none" xmlns="http://www.w3.org/2000/svg">
    <g clip-path="url(#clip0_40_2418)">
    <path d="M16.1525 25.3608C16.1525 28.2816 20.8871 30.649 26.7287 30.649C32.5704 30.649 37.305 28.2816 37.305 25.3608C37.305 22.44 32.5704 20.0727 26.7287 20.0727C20.8871 20.0727 16.1525 22.44 16.1525 25.3608Z" stroke="#4188F8" stroke-width="2.20339" stroke-linecap="round" stroke-linejoin="round"/>
    <path d="M16.1525 25.3608V32.4117C16.1525 35.3307 20.8871 37.6998 26.7287 37.6998C32.5704 37.6998 37.305 35.3307 37.305 32.4117V25.3608" stroke="#4188F8" stroke-width="2.20339" stroke-linecap="round" stroke-linejoin="round"/>
    <path d="M5.57617 11.2591C5.57617 13.1488 7.59271 14.8939 10.8643 15.8387C14.1359 16.7835 18.169 16.7835 21.4406 15.8387C24.7122 14.8939 26.7287 13.1488 26.7287 11.2591C26.7287 9.36952 24.7122 7.62443 21.4406 6.67962C18.169 5.7348 14.1359 5.7348 10.8643 6.67962C7.59271 7.62443 5.57617 9.36952 5.57617 11.2591Z" stroke="#4188F8" stroke-width="2.20339" stroke-linecap="round" stroke-linejoin="round"/>
    <path d="M5.57617 11.2592V28.8863C5.57617 30.4516 6.93699 31.4422 9.1016 32.4117" stroke="#4188F8" stroke-width="2.20339" stroke-linecap="round" stroke-linejoin="round"/>
    <path d="M5.57617 20.0727C5.57617 21.638 6.93699 22.6286 9.1016 23.5981" stroke="#4188F8" stroke-width="2.20339" stroke-linecap="round" stroke-linejoin="round"/>
    </g>
    <defs>
    <clipPath id="clip0_40_2418">
    <rect width="42.3051" height="42.3051" fill="white" transform="translate(0.288086 0.682861)"/>
    </clipPath>
    </defs>
    </svg>
    