<svg width="43" height="43" viewBox="0 0 43 43" fill="none" xmlns="http://www.w3.org/2000/svg">
    <g clip-path="url(#clip0_161_1049)">
    <path d="M19.6777 11.2264C19.6777 12.629 20.6064 13.9743 22.2595 14.9661C23.9125 15.9579 26.1545 16.5151 28.4923 16.5151C30.8301 16.5151 33.0721 15.9579 34.7252 14.9661C36.3782 13.9743 37.3069 12.629 37.3069 11.2264C37.3069 9.82371 36.3782 8.47849 34.7252 7.48666C33.0721 6.49483 30.8301 5.93762 28.4923 5.93762C26.1545 5.93762 23.9125 6.49483 22.2595 7.48666C20.6064 8.47849 19.6777 9.82371 19.6777 11.2264Z" stroke="#4188F8" stroke-width="2.2" stroke-linecap="round" stroke-linejoin="round"/>
    <path d="M19.6777 11.2264V18.2781C19.6777 21.1993 23.6249 23.5669 28.4923 23.5669C33.3597 23.5669 37.3069 21.1993 37.3069 18.2781V11.2264" stroke="#4188F8" stroke-width="2.2" stroke-linecap="round" stroke-linejoin="round"/>
    <path d="M19.6777 18.2781V25.3297C19.6777 28.2509 23.6249 30.6185 28.4923 30.6185C33.3597 30.6185 37.3069 28.2509 37.3069 25.3297V18.2781" stroke="#4188F8" stroke-width="2.2" stroke-linecap="round" stroke-linejoin="round"/>
    <path d="M19.6777 25.3297V32.3814C19.6777 35.3025 23.6249 37.6701 28.4923 37.6701C33.3597 37.6701 37.3069 35.3025 37.3069 32.3814V25.3297" stroke="#4188F8" stroke-width="2.2" stroke-linecap="round" stroke-linejoin="round"/>
    <path d="M12.626 16.5151H8.21872C7.51738 16.5151 6.84478 16.7937 6.34886 17.2897C5.85294 17.7856 5.57434 18.4582 5.57434 19.1595C5.57434 19.8608 5.85294 20.5335 6.34886 21.0294C6.84478 21.5253 7.51738 21.8039 8.21872 21.8039H9.98163C10.683 21.8039 11.3556 22.0825 11.8515 22.5784C12.3474 23.0743 12.626 23.7469 12.626 24.4483C12.626 25.1496 12.3474 25.8222 11.8515 26.3181C11.3556 26.814 10.683 27.0926 9.98163 27.0926H5.57434" stroke="#4188F8" stroke-width="2.2" stroke-linecap="round" stroke-linejoin="round"/>
    <path d="M9.10022 27.0927V28.8557M9.10022 14.7523V16.5152" stroke="#4188F8" stroke-width="2.2" stroke-linecap="round" stroke-linejoin="round"/>
    </g>
    <defs>
    <clipPath id="clip0_161_1049">
    <rect width="42.31" height="42.31" fill="white" transform="translate(0.285645 0.648926)"/>
    </clipPath>
    </defs>
    </svg>
    