<svg width="43" height="43" viewBox="0 0 43 43" fill="none" xmlns="http://www.w3.org/2000/svg">
    <g clip-path="url(#clip0_40_2472)">
    <path d="M7.37292 28.8694L17.9492 16.5304L26.7628 25.344L35.5763 14.7677" stroke="#4188F8" stroke-width="2.20339" stroke-linecap="round" stroke-linejoin="round"/>
    <path d="M25 25.3439C25 25.8114 25.1857 26.2597 25.5163 26.5903C25.8469 26.9209 26.2952 27.1066 26.7627 27.1066C27.2302 27.1066 27.6786 26.9209 28.0091 26.5903C28.3397 26.2597 28.5254 25.8114 28.5254 25.3439C28.5254 24.8764 28.3397 24.428 28.0091 24.0975C27.6786 23.7669 27.2302 23.5812 26.7627 23.5812C26.2952 23.5812 25.8469 23.7669 25.5163 24.0975C25.1857 24.428 25 24.8764 25 25.3439Z" stroke="#4188F8" stroke-width="2.20339" stroke-linecap="round" stroke-linejoin="round"/>
    <path d="M16.1864 16.5304C16.1864 16.9979 16.3721 17.4463 16.7027 17.7768C17.0333 18.1074 17.4816 18.2931 17.9491 18.2931C18.4166 18.2931 18.865 18.1074 19.1955 17.7768C19.5261 17.4463 19.7118 16.9979 19.7118 16.5304C19.7118 16.0629 19.5261 15.6146 19.1955 15.284C18.865 14.9534 18.4166 14.7677 17.9491 14.7677C17.4816 14.7677 17.0333 14.9534 16.7027 15.284C16.3721 15.6146 16.1864 16.0629 16.1864 16.5304Z" stroke="#4188F8" stroke-width="2.20339" stroke-linecap="round" stroke-linejoin="round"/>
    <path d="M5.61023 28.8693C5.61023 29.3368 5.79594 29.7851 6.12652 30.1157C6.45709 30.4463 6.90544 30.632 7.37294 30.632C7.84044 30.632 8.28879 30.4463 8.61937 30.1157C8.94994 29.7851 9.13565 29.3368 9.13565 28.8693C9.13565 28.4018 8.94994 27.9534 8.61937 27.6229C8.28879 27.2923 7.84044 27.1066 7.37294 27.1066C6.90544 27.1066 6.45709 27.2923 6.12652 27.6229C5.79594 27.9534 5.61023 28.4018 5.61023 28.8693Z" stroke="#4188F8" stroke-width="2.20339" stroke-linecap="round" stroke-linejoin="round"/>
    <path d="M33.8136 14.7676C33.8136 15.2351 33.9993 15.6834 34.3299 16.014C34.6605 16.3446 35.1088 16.5303 35.5763 16.5303C36.0438 16.5303 36.4922 16.3446 36.8227 16.014C37.1533 15.6834 37.339 15.2351 37.339 14.7676C37.339 14.3001 37.1533 13.8517 36.8227 13.5212C36.4922 13.1906 36.0438 13.0049 35.5763 13.0049C35.1088 13.0049 34.6605 13.1906 34.3299 13.5212C33.9993 13.8517 33.8136 14.3001 33.8136 14.7676Z" stroke="#4188F8" stroke-width="2.20339" stroke-linecap="round" stroke-linejoin="round"/>
    </g>
    <defs>
    <clipPath id="clip0_40_2472">
    <rect width="42.3051" height="42.3051" fill="white" transform="translate(0.322021 0.665894)"/>
    </clipPath>
    </defs>
    </svg>
    