<svg width="64" height="65" viewBox="0 0 64 65" fill="none" xmlns="http://www.w3.org/2000/svg">
    <g clip-path="url(#clip0_124_3112)">
    <path d="M45.3333 21.8333V13.8333C45.3333 13.126 45.0523 12.4478 44.5522 11.9477C44.0522 11.4476 43.3739 11.1666 42.6666 11.1666H16C14.5855 11.1666 13.2289 11.7285 12.2287 12.7287C11.2285 13.7289 10.6666 15.0855 10.6666 16.5M10.6666 16.5C10.6666 17.9144 11.2285 19.271 12.2287 20.2712C13.2289 21.2714 14.5855 21.8333 16 21.8333H48C48.7072 21.8333 49.3855 22.1142 49.8856 22.6143C50.3857 23.1144 50.6666 23.7927 50.6666 24.5V32.5M10.6666 16.5V48.5C10.6666 49.9144 11.2285 51.271 12.2287 52.2712C13.2289 53.2714 14.5855 53.8333 16 53.8333H48C48.7072 53.8333 49.3855 53.5523 49.8856 53.0522C50.3857 52.5522 50.6666 51.8739 50.6666 51.1666V43.1666" stroke="#4188F8" stroke-width="3" stroke-linecap="round" stroke-linejoin="round"/>
    <path d="M53.3334 32.5V43.1667H42.6667C41.2522 43.1667 39.8957 42.6048 38.8955 41.6046C37.8953 40.6044 37.3334 39.2478 37.3334 37.8333C37.3334 36.4188 37.8953 35.0623 38.8955 34.0621C39.8957 33.0619 41.2522 32.5 42.6667 32.5H53.3334Z" stroke="#4188F8" stroke-width="3" stroke-linecap="round" stroke-linejoin="round"/>
    </g>
    <defs>
    <clipPath id="clip0_124_3112">
    <rect width="64" height="64" fill="white" transform="translate(0 0.5)"/>
    </clipPath>
    </defs>
    </svg>
    