<svg width="64" height="65" viewBox="0 0 64 65" fill="none" xmlns="http://www.w3.org/2000/svg">
    <g clip-path="url(#clip0_89_2998)">
    <path d="M8 19.1666H16" stroke="#4188F8" stroke-width="3" stroke-linecap="round" stroke-linejoin="round"/>
    <path d="M8 29.8334H13.3333" stroke="#4188F8" stroke-width="3" stroke-linecap="round" stroke-linejoin="round"/>
    <path d="M24.0533 23.9693L22.4533 39.9693C22.3792 40.7107 22.4612 41.4594 22.6942 42.1672C22.9271 42.875 23.3058 43.5261 23.8057 44.0786C24.3057 44.6311 24.9159 45.0727 25.597 45.3749C26.278 45.6771 27.0149 45.8333 27.76 45.8333H49.04C50.3626 45.8332 51.638 45.3418 52.6186 44.4543C53.5992 43.5668 54.2151 42.3466 54.3467 41.0306L55.9467 25.0306C56.0208 24.2892 55.9388 23.5405 55.7058 22.8327C55.4729 22.1249 55.0943 21.4738 54.5943 20.9213C54.0943 20.3689 53.4841 19.9273 52.8031 19.625C52.122 19.3228 51.3851 19.1667 50.64 19.1666H29.36C28.0374 19.1667 26.762 19.6581 25.7814 20.5456C24.8008 21.4331 24.1849 22.6533 24.0533 23.9693Z" stroke="#4188F8" stroke-width="3" stroke-linecap="round" stroke-linejoin="round"/>
    <path d="M26.1333 20.5L34.0853 29.2467C34.792 30.0241 35.6448 30.6548 36.5953 31.1026C37.5457 31.5505 38.575 31.8067 39.6244 31.8567C40.6738 31.9067 41.7229 31.7496 42.7115 31.3941C43.7002 31.0387 44.6092 30.4921 45.3866 29.7853L54.1333 21.8333" stroke="#4188F8" stroke-width="3" stroke-linecap="round" stroke-linejoin="round"/>
    </g>
    <defs>
    <clipPath id="clip0_89_2998">
    <rect width="64" height="64" fill="white" transform="translate(0 0.5)"/>
    </clipPath>
    </defs>
    </svg>
    