<svg width="64" height="65" viewBox="0 0 64 65" fill="none" xmlns="http://www.w3.org/2000/svg">
    <g clip-path="url(#clip0_108_3056)">
    <path d="M50.6667 48.5C53.1421 48.5 55.5161 47.5167 57.2664 45.7664C59.0167 44.016 60.0001 41.642 60.0001 39.1667C60.0001 36.6913 59.0167 34.3174 57.2664 32.567C55.5161 30.8167 53.1421 29.8334 50.6667 29.8334H48.0001C49.0587 25.1187 47.2401 20.252 43.2321 17.068C39.2241 13.8867 33.6321 12.868 28.5654 14.4014C23.4987 15.9347 19.7254 19.7854 18.6667 24.5C12.8027 24.2654 7.58673 28.036 6.22406 33.4947C4.85873 38.9534 7.72806 44.572 13.0667 46.9" stroke="#4188F8" stroke-width="3" stroke-linecap="round" stroke-linejoin="round"/>
    <path d="M21.3334 43.1667C21.3334 42.4594 21.6143 41.7811 22.1144 41.281C22.6145 40.781 23.2928 40.5 24 40.5H40C40.7073 40.5 41.3856 40.781 41.8857 41.281C42.3858 41.7811 42.6667 42.4594 42.6667 43.1667V51.1667C42.6667 51.8739 42.3858 52.5522 41.8857 53.0523C41.3856 53.5524 40.7073 53.8333 40 53.8333H24C23.2928 53.8333 22.6145 53.5524 22.1144 53.0523C21.6143 52.5522 21.3334 51.8739 21.3334 51.1667V43.1667Z" stroke="#4188F8" stroke-width="3" stroke-linecap="round" stroke-linejoin="round"/>
    <path d="M26.6666 40.5V35.1667C26.6666 33.7522 27.2285 32.3957 28.2287 31.3955C29.2289 30.3953 30.5855 29.8334 32 29.8334C33.4144 29.8334 34.771 30.3953 35.7712 31.3955C36.7714 32.3957 37.3333 33.7522 37.3333 35.1667V40.5" stroke="#4188F8" stroke-width="3" stroke-linecap="round" stroke-linejoin="round"/>
    </g>
    <defs>
    <clipPath id="clip0_108_3056">
    <rect width="64" height="64" fill="white" transform="translate(0 0.5)"/>
    </clipPath>
    </defs>
    </svg>
    